<svg xmlns="http://www.w3.org/2000/svg" width="1024" height="1024" viewBox="0 0 1024 1024" version="1.1">
	<path d="M 389.456 276.130 C 374.782 277.442, 354.793 284.415, 342.500 292.511 C 324.064 304.652, 307.757 328.554, 300.791 353.647 L 297.500 365.500 297.500 492.500 L 297.500 619.500 300.797 631.499 C 306.616 652.678, 317.626 670.923, 333.784 686.159 C 346.212 697.880, 360.262 704.897, 380.302 709.392 L 391.927 712 514.006 712 C 621.571 712, 636.997 711.811, 643.763 710.414 C 689.976 700.868, 716.767 674.625, 730.240 625.704 L 732.500 617.500 732.500 492.500 L 732.500 367.500 729.749 356.001 C 726.529 342.543, 718.904 326.067, 711.239 316 C 696.616 296.798, 676.702 284.007, 652 277.952 L 642.500 275.624 519.500 275.562 C 451.850 275.528, 393.330 275.783, 389.456 276.130 M 402.342 346.749 L 372.184 347.029 371.790 371.265 L 371.395 395.500 375.895 401.500 C 382.101 409.774, 400.061 429.096, 427.947 457.500 C 452.709 482.721, 466.902 497.509, 475.938 507.500 C 481.079 513.184, 487.983 520.385, 522 555.543 C 547.811 582.220, 574.596 610.352, 580.038 616.500 C 582.959 619.800, 588.611 625.987, 592.597 630.250 L 599.844 638 629.422 638 L 659 638 658.970 608.750 L 658.940 579.500 649.220 569.434 C 643.874 563.898, 635.058 554.448, 629.628 548.434 C 624.199 542.420, 611.599 529.169, 601.628 518.986 C 591.658 508.803, 577.912 494.403, 571.082 486.986 C 559.218 474.101, 519.590 433, 481.911 394.500 C 472.222 384.600, 461.668 373.575, 458.459 370 C 455.249 366.425, 449.726 360.575, 446.186 357 C 442.646 353.425, 439.079 349.488, 438.260 348.250 C 437.360 346.892, 435.924 346.093, 434.635 346.235 C 433.461 346.364, 418.929 346.595, 402.342 346.749 M 581.417 347.917 C 581.187 348.146, 581 375.960, 581 409.725 L 581 471.117 584.928 475.309 C 587.088 477.614, 590.177 481.300, 591.791 483.500 C 595.017 487.897, 655.172 550.633, 658.365 552.930 C 660.186 554.240, 660.283 554.198, 659.523 552.430 C 659.068 551.369, 658.486 504.825, 658.231 449 L 657.767 347.500 619.800 347.500 C 598.918 347.500, 581.646 347.688, 581.417 347.917 M 372.302 530.416 C 372.411 588.945, 372.725 636.983, 373 637.166 C 373.275 637.350, 390.527 637.372, 411.338 637.215 L 449.176 636.930 448.797 568.715 L 448.417 500.500 435.459 487.104 C 418.358 469.426, 390.617 442.129, 385.127 437.578 C 382.722 435.584, 378.972 431.714, 376.792 428.977 C 374.613 426.239, 372.667 424, 372.467 424 C 372.268 424, 372.193 471.887, 372.302 530.416 M 784.081 534 C 784.024 586.298, 783.568 627.241, 782.983 632.500 C 780.906 651.190, 775.383 669.651, 767.276 685 C 764.226 690.775, 761.341 695.650, 760.865 695.833 C 760.389 696.017, 760 696.609, 760 697.150 C 760 700.030, 742.476 719.815, 732.007 728.756 C 719.757 739.217, 697.063 750.635, 678.932 755.461 C 656.045 761.553, 661.594 761.330, 516.500 761.971 C 443.350 762.293, 386.875 762.710, 391 762.896 C 395.125 763.082, 401.425 763.563, 405 763.964 L 411.500 764.695 401.500 765.043 C 392.321 765.363, 392.073 765.421, 398.477 765.747 C 403.293 765.992, 404.996 766.391, 403.977 767.036 C 402.809 767.774, 402.975 767.973, 404.771 767.985 C 406.933 767.999, 415.123 772.647, 415.838 774.265 C 416.231 775.153, 422.325 777.947, 429.500 780.531 C 432.250 781.521, 434.928 782.706, 435.450 783.165 C 435.972 783.624, 437.633 784, 439.141 784 C 440.649 784, 442.152 784.436, 442.481 784.970 C 443.467 786.564, 456.366 790, 461.368 790 C 464.782 790, 466.475 790.532, 467.732 792 C 469.653 794.243, 471.633 794.601, 472.229 792.812 C 472.510 791.970, 473.326 792.115, 475.035 793.312 C 476.876 794.602, 479.635 795, 486.723 795 C 492.675 795, 496 795.385, 496 796.076 C 496 796.723, 497.776 797.042, 500.467 796.876 C 502.925 796.725, 505.246 796.912, 505.625 797.292 C 506.005 797.672, 506.914 797.486, 507.645 796.879 C 509.499 795.341, 512.330 796.633, 511.770 798.762 C 511.357 800.333, 512.163 800.469, 520.171 800.179 C 525.343 799.991, 528.789 799.467, 528.451 798.921 C 527.680 797.674, 551.297 798.992, 552.115 800.242 C 552.459 800.768, 558.401 801.080, 565.615 800.950 C 573.498 800.809, 579.593 801.162, 581.315 801.859 C 585.524 803.565, 592 803.347, 592 801.500 C 592 799.683, 593.169 799.569, 594.824 801.224 C 595.497 801.897, 597.724 802.562, 599.774 802.702 C 601.823 802.842, 609.125 803.389, 616 803.918 C 626.980 804.764, 630.901 804.585, 648.237 802.449 C 662.053 800.746, 672.080 800.081, 681.663 800.231 C 691.722 800.389, 695.460 800.121, 695.759 799.223 C 695.983 798.550, 697.719 798, 699.615 798 C 701.512 798, 704.680 797.325, 706.654 796.500 C 708.629 795.675, 711.228 795, 712.431 795 C 713.634 795, 715.491 794.339, 716.559 793.532 C 719.057 791.642, 720 791.634, 720 793.500 C 720 794.325, 720.723 795, 721.607 795 C 722.560 795, 722.999 794.440, 722.686 793.624 C 721.959 791.730, 727.005 789.389, 728.077 791.124 C 728.608 791.984, 729.646 791.386, 731.552 789.120 C 733.206 787.155, 734.848 786.112, 735.746 786.456 C 736.900 786.899, 737.082 786.463, 736.579 784.459 C 735.983 782.085, 736.095 781.981, 738.090 783.048 C 739.873 784.003, 740.584 783.861, 742.222 782.222 C 743.849 780.596, 743.999 779.866, 743.065 778.122 C 741.963 776.062, 742.117 776, 748.356 776 L 754.783 776 756.383 772 C 757.843 768.352, 760 766.563, 760 769 C 760 769.550, 760.450 770, 761 770 C 761.550 770, 762.014 768.763, 762.032 767.250 C 762.062 764.625, 762.130 764.588, 763.521 766.427 C 764.323 767.487, 765.096 768.162, 765.240 767.927 C 767.059 764.943, 768 762.757, 768 761.514 C 768 760.681, 768.603 760, 769.340 760 C 770.077 760, 771.279 758.185, 772.011 755.967 C 772.805 753.560, 773.632 752.404, 774.062 753.100 C 774.534 753.863, 775.013 753.535, 775.454 752.146 C 776.198 749.800, 781.626 744, 783.077 744 C 783.585 744, 784 743.502, 784 742.894 C 784 742.286, 785.125 740.903, 786.500 739.821 C 787.896 738.723, 789 736.820, 789 735.511 C 789 734.141, 790.143 732.275, 791.750 731.021 C 793.560 729.608, 794.073 728.696, 793.250 728.354 C 792.563 728.068, 792 726.676, 792 725.262 C 792 722.764, 792.057 722.742, 793.975 724.477 C 795.888 726.209, 795.981 726.181, 796.975 723.567 C 798.300 720.081, 798.287 720, 796.417 720 C 795.540 720, 795.065 719.442, 795.352 718.750 C 795.637 718.063, 796.421 715.813, 797.093 713.750 C 797.766 711.688, 798.695 710, 799.158 710 C 799.621 710, 800 707.282, 800 703.960 C 800 698.038, 802.647 690.568, 805.384 688.765 C 806.169 688.249, 806.129 688.026, 805.250 688.015 C 804.461 688.006, 804 686.525, 804 684 C 804 680.445, 804.267 680, 806.399 680 C 808.523 680, 808.840 679.484, 809.157 675.500 C 809.353 673.025, 809.174 671, 808.757 671 C 808.341 671, 808 667.898, 808 664.107 C 808 658.902, 808.367 657.073, 809.500 656.638 C 810.490 656.258, 811 654.692, 811 652.031 C 811 649.814, 811.450 648, 812 648 C 813.366 648, 813.273 640.287, 811.897 639.436 C 811.172 638.988, 811.007 636.654, 811.418 632.627 C 811.761 629.257, 812.174 621.212, 812.334 614.750 C 812.563 605.567, 812.340 603, 811.313 603 C 810.388 603, 810 601.374, 810 597.500 C 810 593.278, 810.348 592, 811.500 592 C 812.579 592, 813.033 590.808, 813.118 587.750 C 813.184 585.413, 813.132 583.050, 813.003 582.500 C 812.874 581.950, 812.136 578.800, 811.362 575.500 C 810.589 572.200, 809.259 562.075, 808.409 553 C 807.558 543.925, 806.443 536.350, 805.931 536.167 C 805.419 535.983, 805 533.846, 805 531.417 C 805 528.157, 804.607 527, 803.500 527 C 802.452 527, 802 525.944, 802 523.500 C 802 521.575, 801.550 520, 801 520 C 800.450 520, 799.936 518.313, 799.858 516.250 L 799.716 512.500 799 516.500 L 798.284 520.500 798.142 516.309 C 797.995 511.963, 799.576 509.722, 801.096 512.122 C 801.665 513.020, 801.975 511.846, 801.985 508.750 C 801.996 505.188, 801.625 504, 800.500 504 C 799.292 504, 799 502.444, 799 496 C 799 491.333, 798.583 488, 798 488 C 797.450 488, 797 486.200, 797 484 C 797 480.095, 796.917 480, 793.500 480 C 790.167 480, 790 479.833, 790 476.500 C 790 474.290, 789.234 472.234, 787.923 470.923 C 786.627 469.627, 786.095 468.216, 786.509 467.173 C 786.874 466.253, 787.333 464.711, 787.529 463.746 C 787.726 462.782, 788.132 461.595, 788.432 461.110 C 788.732 460.624, 788.298 459.662, 787.466 458.972 C 786.635 458.282, 786.178 456.994, 786.451 456.109 C 786.724 455.224, 786.325 452.250, 785.563 449.500 C 784.355 445.137, 784.166 455.908, 784.081 534 M 790.500 461 C 790.840 461.550, 791.316 462, 791.559 462 C 791.802 462, 792 461.550, 792 461 C 792 460.450, 791.523 460, 790.941 460 C 790.359 460, 790.160 460.450, 790.500 461 M 806 561.941 C 806 562.459, 806.450 563.160, 807 563.500 C 807.550 563.840, 808 563.416, 808 562.559 C 808 561.702, 807.550 561, 807 561 C 806.450 561, 806 561.423, 806 561.941 M 776 753 C 776 753.550, 776.450 754, 777 754 C 777.550 754, 778 753.550, 778 753 C 778 752.450, 777.550 752, 777 752 C 776.450 752, 776 752.450, 776 753" stroke="none" fill="#000000" fill-rule="evenodd"/>
</svg>